<svg id="Layer_1" enable-background="new 0 0 512 512" viewBox="0 0 512 512" xmlns="http://www.w3.org/2000/svg"><g id="_x32_6_mount_fuji_00000152248506390552726480000007218717546049853859_"><g><path d="m512 90.35v60.24h-30.12v30.12h-210.82v30.11h30.12v30.12h30.11v30.12h30.12v30.12h30.12v30.11h30.12v30.12h30.11v30.12h30.12v30.12h30.12v60.23h-30.12v30.12h-451.76v-30.12h-30.12v-60.23h30.12v-30.12h30.12v-30.12h30.11v-30.12h30.12v-30.11h-60.23v-30.12h-30.12v-30.12h-30.12v-150.59h30.12v-30.11h30.12v-30.12h150.58v30.12h60.24v-30.12h30.12v-30.12h60.23v30.12h60.24v30.12h60.23v30.11z"/></g><g><path d="m421.65 391.53-165.65-75.295-165.65 75.295-30.11 30.12-15.06 45.17h421.64l-15.06-45.17z" fill="#1c78be"/><path d="m240.94 180.71v30.11h-30.12v30.12h-30.11l-60.24 15.06-60.23-15.06-30.12-30.12v-90.35l30.12-30.12 60.23-15.05 60.24 15.05v30.12h-30.12v30.12h30.12v30.12z" fill="#ff3939"/><g fill="#c7d1db"><path d="m421.65 90.35-60.24-30.11-30.12-15.06-30.11 15.06-30.12 30.11-30.12 30.12-15.06 15.06 15.06 15.06h210.82l22.097-15.06z"/><path d="m361.41 331.29 24.93 24.93-55.05 35.31-15.06 16.89-15.05-16.89-60.24-30.12-15.06-15.06-15.06 15.06-30.11 30.12-15.06 15.06-15.06-15.06-30.12-30.12v-30.12h30.12l30.12-30.11 30.11-30.12 45.18-15.06 45.18 15.06 30.11 30.12z"/></g></g><g><g fill="#f7f9fa"><path d="m180.71 120.47h60.23v30.12h-60.23z"/><path d="m481.88 90.35v60.24h-30.12v-30.12h-30.11v-30.12z"/><path d="m150.59 301.18h30.12v30.11h-30.12z"/><path d="m301.18 271.06h30.11v30.12h-30.11z"/><path d="m331.29 301.18h30.12v30.11h-30.12z"/><path d="m271.06 60.24h30.12v30.11h-30.12z"/><path d="m240.94 90.35h30.12v30.12h-30.12z"/><path d="m210.82 240.94h90.36v30.12h-90.36z"/><path d="m180.71 271.06h30.11v30.12h-30.11z"/><path d="m361.41 60.24h60.24v30.11h-60.24z"/><path d="m361.41 331.29h30.12v30.12h-30.12z"/><path d="m301.18 30.12h60.23v30.12h-60.23z"/></g><g fill="#145382"><path d="m240.94 361.41h60.24v30.12h-60.24z"/><path d="m150.59 391.53h30.12v30.12h-30.12z"/><path d="m331.29 391.53v-30.12h60.24l15.06 15.06-15.06 15.06z"/><path d="m150.59 391.53h-30.12l-15.06-15.06 15.06-15.06h30.12z"/><path d="m481.88 451.76v30.12h-451.76v-30.12l15.06-15.055 15.06 15.055h391.52l15.06-15.055z"/><path d="m301.18 391.53h30.11v30.12h-30.11z"/><path d="m180.71 361.41h30.11v30.12h-30.11z"/><path d="m210.82 331.29h30.12v30.12h-30.12z"/></g><g fill="#5aa9e6"><path d="m451.76 421.65h30.12v30.11h-30.12z"/><path d="m421.65 391.53h30.11v30.12h-30.11z"/><path d="m391.53 361.41h30.12v30.12h-30.12z"/><path d="m90.35 361.41h30.12v30.12h-30.12z"/><path d="m60.24 391.53h30.11v30.12h-30.11z"/><path d="m30.12 421.65h30.12v30.11h-30.12z"/></g><g fill="#d10000"><path d="m30.12 210.82h30.12v30.12h-30.12z"/><path d="m60.24 240.94h120.47v30.12h-120.47z"/></g><g fill="#ff8d8d"><path d="m30.12 90.35h30.12v30.12h-30.12z"/><path d="m60.24 60.24h150.58v30.11h-150.58z"/></g></g></g><g/><g/><g/><g/><g/><g/><g/><g/><g/><g/><g/><g/><g/><g/><g/></svg>